<svg width="398px" height="414px" viewBox="0 0 398 414" version="1.1" xmlns="http://www.w3.org/2000/svg" xmlns: xlink="http://www.w3.org/1999/xlink">
  <title>Group</title>
  <g id="Page-1" stroke="none" stroke-width="1" fill="none" fill-rule="evenodd" stroke-linecap="round" stroke-linejoin="round">
    <g id="Group" transform="translate(199.042665, 207.142830) rotate(-14.000000) translate(-199.042665, -207.142830) translate(39.042665, 35.142830)" fill="#141414" fill-rule="nonzero" stroke="#FFFFFF" stroke-width="2">
      <polyline id="Path" fill-opacity="0.8" points="275.541687 248.71588 170.504547 313.705397 78.4517413 240.305771 126.597119 129.952791 248.405404 135.150524 275.541687 248.71588"></polyline>
      <polyline id="Path" fill-opacity="0.8" points="248.405404 135.150524 126.597119 129.952791 78.4517413 46.5232869 170.504547 0.158750908 275.541687 54.9333958 248.405404 135.150524"></polyline>
      <polyline id="Path" fill-opacity="0.8" points="126.597119 129.952791 78.4517413 46.5232869 0.550884267 105.313998 0.550884267 225.07816 78.4517413 240.305771 126.597119 129.952791"></polyline>
      <polyline id="Path" fill-opacity="0.8" points="248.405404 135.150524 275.541687 248.71588 319.449116 238.686002 319.449116 118.92184 275.541687 54.9333958 248.405404 135.150524"></polyline>
      <polyline id="Path" fill-opacity="0.8" points="170.504547 313.705397 78.4517413 240.305771 0.550884267 225.07816 44.4583127 289.066604 149.495453 343.841249 170.504547 313.705397"></polyline>
      <polyline id="Path" fill-opacity="0.8" points="170.504547 313.705397 149.495453 343.841249 241.548259 297.476713 319.449116 238.686002 275.541687 248.71588 170.504547 313.705397"></polyline>
      <polyline id="Path" fill-opacity="0.8" points="170.020703 2.09934236 77.9678975 48.4638784 0.0670404762 107.25459 43.9744689 97.2247114 149.011609 32.2351945 170.020703 2.09934236"></polyline>
      <polyline id="Path" fill-opacity="0.8" points="170.504547 0.158750908 149.495453 30.294603 241.548259 103.694229 319.449116 118.92184 275.541687 54.9333958 170.504547 0.158750908"></polyline>
      <polyline id="Path" fill-opacity="0.8" points="71.5945958 208.849476 44.4583127 289.066604 0.550884267 225.07816 0.550884267 105.313998 44.4583127 95.2841199 71.5945958 208.849476"></polyline>
      <polyline id="Path" fill-opacity="0.8" points="241.548259 103.694229 319.449116 118.92184 319.449116 238.686002 241.548259 297.476713 193.402881 214.047209 241.548259 103.694229"></polyline>
      <polyline id="Path" fill-opacity="0.8" points="71.5945958 208.849476 193.402881 214.047209 241.548259 297.476713 149.495453 343.841249 44.4583127 289.066604 71.5945958 208.849476"></polyline>
      <polyline id="Path" points="149.495453 30.294603 44.4583127 95.2841199 71.5945958 208.849476 193.402881 214.047209 241.548259 103.694229 149.495453 30.294603"></polyline>
    </g>
  </g>
</svg>